inDegrees=yes
name=ik_S42_A04_T02
DataType=double
version=3
OpenSimVersion=4.3-2021-08-27-4bc7ad9
endheader
time	pelvis_tilt	pelvis_list	pelvis_rotation	pelvis_tx	pelvis_ty	pelvis_tz	hip_flexion_r	hip_adduction_r	hip_rotation_r	knee_angle_r	knee_angle_r_beta	ankle_angle_r	subtalar_angle_r	mtp_angle_r	hip_flexion_l	hip_adduction_l	hip_rotation_l	knee_angle_l	knee_angle_l_beta	ankle_angle_l	subtalar_angle_l	mtp_angle_l	lumbar_extension	lumbar_bending	lumbar_rotation	arm_flex_r	arm_add_r	arm_rot_r	elbow_flex_r	pro_sup_r	wrist_flex_r	wrist_dev_r	arm_flex_l	arm_add_l	arm_rot_l	elbow_flex_l	pro_sup_l	wrist_flex_l	wrist_dev_l
6.099999999999958	0.4523267444701914	-4.54875557896746	22.8032290497175	0	0.9399999999999999	0	14.77869747615942	2.913616641971696	-5.263384429407412	17.73533687042534	0.3095400223392692	0	0	0	15.29583961959022	-5.525027083708652	-6.436181014915836	22.70716731709998	0.396314833484642	0	0	0	0	0	0	18.06731832546478	-18.06731832546478	2.928215625629772	56.97007204682062	87.07178454245197	0	0	18.06731832546478	-18.06731832546478	2.928215625629772	56.97007204682062	87.07178454206438	0	0
6.119999999999957	0.4631649778160273	-4.543393640750705	22.7947765407935	0	0.9399999999999999	0	13.56919396836254	2.818058393875877	-5.065160276421937	16.18157735363504	0.2824218029870823	0	0	0	14.27692203585273	-5.59990831163092	-6.839192888175002	21.19493621034446	0.3699214216206803	0	0	0	0	0	0	18.07294367270134	-18.07294367270134	2.929052174039061	56.98245035816593	87.07094799408971	0	0	18.07294367270134	-18.07294367270134	2.929052174039061	56.98245035816593	87.07094799370221	0	0
6.139999999999957	1.346756038101912	-3.954248737156009	22.81404506043523	0	0.9399999999999999	0	10.34490597817499	2.303613164958361	-4.450533716540321	13.70397489955696	0.2391794826079281	0	0	0	12.24659006778348	-5.487562025034567	-7.17808394081563	19.68079367284057	0.3434946489967355	0	0	0	0	0	0	18.08482519865089	-18.08482519865089	2.930817081686052	57.00855192380224	87.06918308654191	0	0	18.08482519865089	-18.08482519865089	2.930817081686052	57.00855192380224	87.06918308615477	0	0
6.159999999999957	1.824878807966187	-3.658471553857083	22.85156072829807	0	0.9399999999999999	0	8.666700664155369	2.158058042541797	-3.917698988845229	11.87019834787133	0.2071740440351459	0	0	0	10.75654008361369	-5.392208846042839	-7.447493630850513	18.1584856343996	0.3169253614963643	0	0	0	0	0	0	18.09135051330631	-18.09135051330631	2.931786822736016	57.02289506063976	87.06821334554643	0	0	18.09135051330631	-18.09135051330631	2.931786822736016	57.02289506063976	87.06821334515948	0	0
6.179999999999956	2.171531707484112	-3.396249262579077	22.94168857970607	0	0.9399999999999999	0	7.040486235758734	1.905766816240524	-3.715229080124542	10.17613057532363	0.1776069836522622	0	0	0	8.189552621043299	-5.406830545291402	-8.655806723719158	15.64661641144189	0.2730849731762408	0	0	0	0	0	0	18.0985326239701	-18.0985326239701	2.932855655269272	57.03870891662416	87.06714451307329	0	0	18.0985326239701	-18.0985326239701	2.932855655269272	57.03870891662416	87.0671445126865	0	0
6.199999999999956	2.488231010601724	-3.102694662539768	23.10236636671558	0	0.9399999999999999	0	5.446832708926504	1.563127004546415	-3.516385768204079	8.586329432897667	0.1498597192649618	0	0	0	7.791984012716431	-5.204800500663364	-8.581831049516609	14.97869879193738	0.2614276115838043	0	0	0	0	0	0	18.1059499386584	-18.1059499386584	2.93395520220069	57.05495755542699	87.06604496620362	0	0	18.1059499386584	-18.1059499386584	2.93395520220069	57.05495755542699	87.06604496581711	0	0
6.219999999999955	2.685836338581641	-2.939131325269094	23.1777999581985	0	0.9399999999999999	0	4.120208602923527	1.257324017329599	-2.991625878309601	7.042562088497276	0.1229158962204057	0	0	0	6.644788866552584	-5.081904590812097	-8.37239629863296	13.4660045511653	0.2350261165063757	0	0	0	0	0	0	18.11268954839752	-18.11268954839752	2.934955771202424	57.06974858233048	87.06504439725811	0	0	18.11268954839752	-18.11268954839752	2.934955771202424	57.06974858233048	87.06504439687187	0	0
6.239999999999955	3.02874967151285	-2.686049709917021	23.32523397525497	0	0.9399999999999999	0	2.804984976197824	0.8601299711343877	-2.512148878622379	5.671428859259803	0.09898510688670967	0	0	0	5.424778613259228	-5.050226950795229	-7.850402735502628	12.67412690302796	0.22120524427343	0	0	0	0	0	0	18.12016803922338	-18.12016803922338	2.936065223499434	57.08614432236228	87.06393494502339	0	0	18.12016803922338	-18.12016803922338	2.936065223499434	57.08614432236228	87.0639349446374	0	0
6.259999999999954	3.197567131326687	-2.559187668725358	23.42815571373892	0	0.9399999999999999	0	2.604317853113849	0.8870175865928984	-2.605086140369562	5.293608122234691	0.0923908910433098	0	0	0	4.419250903765358	-5.115576818238465	-7.625957467724304	10.74612088259101	0.187555191218532	0	0	0	0	0	0	18.12601282947393	-18.12601282947393	2.936918510011516	57.09869482992936	87.06308165855908	0	0	18.12601282947393	-18.12601282947393	2.936918510011516	57.09869482992936	87.06308165817343	0	0
6.279999999999954	3.333975296779185	-2.462097564039071	23.50102163720965	0	0.9399999999999999	0	1.664569987070962	0.5862892595114938	-2.287735029782486	4.365185002343623	0.0761868507495726	0	0	0	3.476556081191701	-5.191870229721737	-7.812732153936007	9.608786968907463	0.1677049697301612	0	0	0	0	0	0	18.13203124275738	-18.13203124275738	2.937812965414743	57.11191808966952	87.06218720320616	0	0	18.13203124275738	-18.13203124275738	2.937812965414743	57.11191808966952	87.06218720282071	0	0
6.299999999999954	3.445552898873272	-2.309873952858298	23.63126527511351	0	0.9399999999999999	0	0.8173627538900006	0.2739877410272071	-2.232151493334155	3.422396423057232	0.05973208589082547	0	0	0	2.66029949581886	-5.168147179315596	-7.919797699558598	8.637465141352429	0.1507522057428373	0	0	0	0	0	0	18.13831629689795	-18.13831629689795	2.938746412534631	57.12571407825056	87.06125375613873	0	0	18.13831629689795	-18.13831629689795	2.938746412534631	57.12571407825056	87.06125375575351	0	0
6.319999999999953	3.543478232757024	-1.992279360031716	23.96028134695429	0	0.9399999999999999	0	-0.7229145155772038	-0.281225713582971	-2.953026054306535	2.050287106106656	0.03578426061274748	0	0	0	1.882191647383631	-4.999099791358732	-7.993917734259698	7.799463139444324	0.1361263116712371	0	0	0	0	0	0	18.14866267398747	-18.14866267398747	2.94028071726038	57.14837710720271	87.05971945149921	0	0	18.14866267398747	-18.14866267398747	2.94028071726038	57.14837710720271	87.05971945111429	0	0
6.339999999999953	3.587605772573141	-1.923277641299336	24.02282666458808	0	0.9399999999999999	0	-0.79082910365643	-0.282051454248742	-3.028605795139539	1.745054691726248	0.03045694999799767	0	0	0	1.294122324377078	-5.010433316666482	-8.660528820987999	7.137906503031877	0.1245799701774209	0	0	0	0	0	0	18.15403628936127	-18.15403628936127	2.941079092848421	57.16017567829765	87.05892107595604	0	0	18.15403628936127	-18.15403628936127	2.941079092848421	57.16017567829765	87.05892107557125	0	0
6.359999999999952	3.711337244078254	-1.812535051060198	24.20516503855623	0	0.9399999999999999	0	-1.94273734792294	-0.5721097632348572	-3.978597459448388	0.7571359830940616	0.0132145157903155	0	0	0	0.7364010073268398	-5.090032915124387	-9.362705298989043	6.751638014764429	0.1178383132604528	0	0	0	0	0	0	18.16212011069526	-18.16212011069526	2.942274971802697	57.17782432985263	87.05772519706895	0	0	18.16212011069526	-18.16212011069526	2.942274971802697	57.17782432985263	87.05772519668443	0	0
